<svg width="153" height="35" viewBox="0 0 153 35" fill="none" xmlns="http://www.w3.org/2000/svg">
<g filter="url(#filter0_b_747_10)">
<mask id="path-1-inside-1_747_10" fill="white">
<path d="M0.737 4.75C0.737 2.54086 2.52786 0.75 4.737 0.75H35.263V34.75H4.737C2.52786 34.75 0.737 32.9591 0.737 30.75V4.75Z"/>
</mask>
<path d="M0.737 4.75C0.737 2.54086 2.52786 0.75 4.737 0.75H35.263V34.75H4.737C2.52786 34.75 0.737 32.9591 0.737 30.75V4.75Z" fill="white" fill-opacity="0.3"/>
<g filter="url(#filter1_d_747_10)">
<path d="M11.737 19.6189L16.6838 23.75L24.263 11.75" stroke="white" stroke-width="2.5" stroke-linecap="round" stroke-linejoin="round"/>
</g>
<path d="M-0.763 4.75C-0.763 1.71243 1.69943 -0.75 4.737 -0.75H36.013L34.513 2.25H4.737C3.35629 2.25 2.237 3.36929 2.237 4.75H-0.763ZM36.013 36.25H4.737C1.69943 36.25 -0.763 33.7876 -0.763 30.75H2.237C2.237 32.1307 3.35629 33.25 4.737 33.25H34.513L36.013 36.25ZM4.737 36.25C1.69943 36.25 -0.763 33.7876 -0.763 30.75V4.75C-0.763 1.71243 1.69943 -0.75 4.737 -0.75V2.25C3.35629 2.25 2.237 3.36929 2.237 4.75V30.75C2.237 32.1307 3.35629 33.25 4.737 33.25V36.25ZM36.013 -0.75V36.25L34.513 33.25V2.25L36.013 -0.75Z" fill="white" mask="url(#path-1-inside-1_747_10)"/>
</g>
<g filter="url(#filter2_b_747_10)">
<mask id="path-4-inside-2_747_10" fill="white">
<path d="M35.263 0.75H148.263C150.472 0.75 152.263 2.54086 152.263 4.75V30.75C152.263 32.9591 150.472 34.75 148.263 34.75H35.263V0.75Z"/>
</mask>
<path d="M35.263 0.75H148.263C150.472 0.75 152.263 2.54086 152.263 4.75V30.75C152.263 32.9591 150.472 34.75 148.263 34.75H35.263V0.75Z" fill="white" fill-opacity="0.01"/>
<g filter="url(#filter3_d_747_10)">
<path d="M52.481 21.75V11.81H55.533C57.0077 11.81 58.2443 12.286 59.243 13.238C60.2417 14.19 60.741 15.3707 60.741 16.78C60.741 18.1893 60.2417 19.37 59.243 20.322C58.2443 21.274 57.0077 21.75 55.533 21.75H52.481ZM54.119 20.224H55.533C56.5783 20.224 57.4277 19.8973 58.081 19.244C58.7437 18.5907 59.075 17.7693 59.075 16.78C59.075 15.7907 58.7437 14.9693 58.081 14.316C57.4277 13.6627 56.5783 13.336 55.533 13.336H54.119V20.224ZM68.1295 20.84C67.4295 21.54 66.5615 21.89 65.5255 21.89C64.4895 21.89 63.6168 21.54 62.9075 20.84C62.2075 20.1307 61.8575 19.2673 61.8575 18.25C61.8575 17.2327 62.2075 16.374 62.9075 15.674C63.6168 14.9647 64.4895 14.61 65.5255 14.61C66.5615 14.61 67.4295 14.9647 68.1295 15.674C68.8388 16.374 69.1935 17.2327 69.1935 18.25C69.1935 19.2673 68.8388 20.1307 68.1295 20.84ZM65.5255 20.462C66.1322 20.462 66.6315 20.252 67.0235 19.832C67.4248 19.4027 67.6255 18.8753 67.6255 18.25C67.6255 17.6247 67.4248 17.102 67.0235 16.682C66.6315 16.2527 66.1322 16.038 65.5255 16.038C64.9095 16.038 64.4008 16.2527 63.9995 16.682C63.6075 17.102 63.4115 17.6247 63.4115 18.25C63.4115 18.8753 63.6075 19.4027 63.9995 19.832C64.4008 20.252 64.9095 20.462 65.5255 20.462ZM76.6517 21.75L75.1117 17.228L73.5857 21.75H72.1297L69.7777 14.75H71.4017L72.9137 19.58L74.5237 14.75H75.6997L77.2817 19.58L78.8217 14.75H80.4597L78.1077 21.75H76.6517ZM81.6115 21.75V14.75H83.1515V15.702C83.5902 14.974 84.2995 14.61 85.2795 14.61C86.0915 14.61 86.7402 14.876 87.2255 15.408C87.7108 15.94 87.9535 16.6493 87.9535 17.536V21.75H86.4135V17.788C86.4135 17.228 86.2828 16.794 86.0215 16.486C85.7602 16.1687 85.4055 16.01 84.9575 16.01C84.4255 16.01 83.9915 16.2107 83.6555 16.612C83.3195 17.0133 83.1515 17.578 83.1515 18.306V21.75H81.6115ZM89.924 21.75V11.25H91.464V21.75H89.924ZM99.3014 20.84C98.6014 21.54 97.7334 21.89 96.6974 21.89C95.6614 21.89 94.7887 21.54 94.0794 20.84C93.3794 20.1307 93.0294 19.2673 93.0294 18.25C93.0294 17.2327 93.3794 16.374 94.0794 15.674C94.7887 14.9647 95.6614 14.61 96.6974 14.61C97.7334 14.61 98.6014 14.9647 99.3014 15.674C100.011 16.374 100.365 17.2327 100.365 18.25C100.365 19.2673 100.011 20.1307 99.3014 20.84ZM96.6974 20.462C97.304 20.462 97.8034 20.252 98.1954 19.832C98.5967 19.4027 98.7974 18.8753 98.7974 18.25C98.7974 17.6247 98.5967 17.102 98.1954 16.682C97.8034 16.2527 97.304 16.038 96.6974 16.038C96.0814 16.038 95.5727 16.2527 95.1714 16.682C94.7794 17.102 94.5834 17.6247 94.5834 18.25C94.5834 18.8753 94.7794 19.4027 95.1714 19.832C95.5727 20.252 96.0814 20.462 96.6974 20.462ZM104.784 21.89C103.832 21.89 103.03 21.5353 102.376 20.826C101.732 20.1167 101.41 19.258 101.41 18.25C101.41 17.242 101.732 16.3833 102.376 15.674C103.03 14.9647 103.832 14.61 104.784 14.61C105.26 14.61 105.699 14.7173 106.1 14.932C106.502 15.1373 106.81 15.3893 107.024 15.688V14.75H108.564V21.75H107.024V20.812C106.81 21.1107 106.502 21.3673 106.1 21.582C105.699 21.7873 105.26 21.89 104.784 21.89ZM103.566 19.846C103.958 20.2753 104.458 20.49 105.064 20.49C105.671 20.49 106.17 20.2753 106.562 19.846C106.954 19.4167 107.15 18.8847 107.15 18.25C107.15 17.6153 106.954 17.0833 106.562 16.654C106.17 16.2247 105.671 16.01 105.064 16.01C104.458 16.01 103.958 16.2247 103.566 16.654C103.174 17.0833 102.978 17.6153 102.978 18.25C102.978 18.8847 103.174 19.4167 103.566 19.846ZM113.521 21.89C112.569 21.89 111.766 21.5353 111.113 20.826C110.469 20.1167 110.147 19.258 110.147 18.25C110.147 17.242 110.469 16.3833 111.113 15.674C111.766 14.9647 112.569 14.61 113.521 14.61C113.997 14.61 114.435 14.7173 114.837 14.932C115.238 15.1373 115.546 15.3893 115.761 15.688V11.25H117.301V21.75H115.761V20.812C115.546 21.1107 115.238 21.3673 114.837 21.582C114.435 21.7873 113.997 21.89 113.521 21.89ZM112.303 19.846C112.695 20.2753 113.194 20.49 113.801 20.49C114.407 20.49 114.907 20.2753 115.299 19.846C115.691 19.4167 115.887 18.8847 115.887 18.25C115.887 17.6153 115.691 17.0833 115.299 16.654C114.907 16.2247 114.407 16.01 113.801 16.01C113.194 16.01 112.695 16.2247 112.303 16.654C111.911 17.0833 111.715 17.6153 111.715 18.25C111.715 18.8847 111.911 19.4167 112.303 19.846Z" fill="white"/>
</g>
<g filter="url(#filter4_d_747_10)">
<path d="M127.263 18.7997L131.763 22.9231M131.763 22.9231L136.263 18.7997M131.763 22.9231V10.5769" stroke="white" stroke-width="1.5" stroke-linecap="round" stroke-linejoin="round"/>
</g>
<path d="M34.513 -0.75H148.263C151.301 -0.75 153.763 1.71243 153.763 4.75H150.763C150.763 3.36929 149.644 2.25 148.263 2.25H36.013L34.513 -0.75ZM153.763 30.75C153.763 33.7876 151.301 36.25 148.263 36.25H34.513L36.013 33.25H148.263C149.644 33.25 150.763 32.1307 150.763 30.75H153.763ZM34.513 36.25V-0.75L36.013 2.25V33.25L34.513 36.25ZM148.263 -0.75C151.301 -0.75 153.763 1.71243 153.763 4.75V30.75C153.763 33.7876 151.301 36.25 148.263 36.25V33.25C149.644 33.25 150.763 32.1307 150.763 30.75V4.75C150.763 3.36929 149.644 2.25 148.263 2.25V-0.75Z" fill="white" mask="url(#path-4-inside-2_747_10)"/>
</g>
<defs>
<filter id="filter0_b_747_10" x="-3.263" y="-3.25" width="42.526" height="42" filterUnits="userSpaceOnUse" color-interpolation-filters="sRGB">
<feFlood flood-opacity="0" result="BackgroundImageFix"/>
<feGaussianBlur in="BackgroundImageFix" stdDeviation="2"/>
<feComposite in2="SourceAlpha" operator="in" result="effect1_backgroundBlur_747_10"/>
<feBlend mode="normal" in="SourceGraphic" in2="effect1_backgroundBlur_747_10" result="shape"/>
</filter>
<filter id="filter1_d_747_10" x="2.48694" y="2.49988" width="31.0262" height="30.5001" filterUnits="userSpaceOnUse" color-interpolation-filters="sRGB">
<feFlood flood-opacity="0" result="BackgroundImageFix"/>
<feColorMatrix in="SourceAlpha" type="matrix" values="0 0 0 0 0 0 0 0 0 0 0 0 0 0 0 0 0 0 127 0" result="hardAlpha"/>
<feOffset/>
<feGaussianBlur stdDeviation="4"/>
<feComposite in2="hardAlpha" operator="out"/>
<feColorMatrix type="matrix" values="0 0 0 0 0 0 0 0 0 0 0 0 0 0 0 0 0 0 1 0"/>
<feBlend mode="normal" in2="BackgroundImageFix" result="effect1_dropShadow_747_10"/>
<feBlend mode="normal" in="SourceGraphic" in2="effect1_dropShadow_747_10" result="shape"/>
</filter>
<filter id="filter2_b_747_10" x="31.263" y="-3.25" width="125" height="42" filterUnits="userSpaceOnUse" color-interpolation-filters="sRGB">
<feFlood flood-opacity="0" result="BackgroundImageFix"/>
<feGaussianBlur in="BackgroundImageFix" stdDeviation="2"/>
<feComposite in2="SourceAlpha" operator="in" result="effect1_backgroundBlur_747_10"/>
<feBlend mode="normal" in="SourceGraphic" in2="effect1_backgroundBlur_747_10" result="shape"/>
</filter>
<filter id="filter3_d_747_10" x="46.481" y="6.25" width="76.8195" height="22.64" filterUnits="userSpaceOnUse" color-interpolation-filters="sRGB">
<feFlood flood-opacity="0" result="BackgroundImageFix"/>
<feColorMatrix in="SourceAlpha" type="matrix" values="0 0 0 0 0 0 0 0 0 0 0 0 0 0 0 0 0 0 127 0" result="hardAlpha"/>
<feOffset dy="1"/>
<feGaussianBlur stdDeviation="3"/>
<feComposite in2="hardAlpha" operator="out"/>
<feColorMatrix type="matrix" values="0 0 0 0 0.154167 0 0 0 0 0.154167 0 0 0 0 0.154167 0 0 0 0.29 0"/>
<feBlend mode="normal" in2="BackgroundImageFix" result="effect1_dropShadow_747_10"/>
<feBlend mode="normal" in="SourceGraphic" in2="effect1_dropShadow_747_10" result="shape"/>
</filter>
<filter id="filter4_d_747_10" x="120.513" y="4.8269" width="22.5" height="25.8462" filterUnits="userSpaceOnUse" color-interpolation-filters="sRGB">
<feFlood flood-opacity="0" result="BackgroundImageFix"/>
<feColorMatrix in="SourceAlpha" type="matrix" values="0 0 0 0 0 0 0 0 0 0 0 0 0 0 0 0 0 0 127 0" result="hardAlpha"/>
<feOffset dy="1"/>
<feGaussianBlur stdDeviation="3"/>
<feComposite in2="hardAlpha" operator="out"/>
<feColorMatrix type="matrix" values="0 0 0 0 0.154167 0 0 0 0 0.154167 0 0 0 0 0.154167 0 0 0 0.29 0"/>
<feBlend mode="normal" in2="BackgroundImageFix" result="effect1_dropShadow_747_10"/>
<feBlend mode="normal" in="SourceGraphic" in2="effect1_dropShadow_747_10" result="shape"/>
</filter>
</defs>
</svg>
