<svg width="153" height="35" viewBox="0 0 153 35" fill="none" xmlns="http://www.w3.org/2000/svg">
<g filter="url(#filter0_b_747_13)">
<mask id="path-1-inside-1_747_13" fill="white">
<path d="M0.737061 4.75C0.737061 2.54086 2.52792 0.75 4.73706 0.75H35.2631V34.75H4.73706C2.52792 34.75 0.737061 32.9591 0.737061 30.75V4.75Z"/>
</mask>
<path d="M0.737061 4.75C0.737061 2.54086 2.52792 0.75 4.73706 0.75H35.2631V34.75H4.73706C2.52792 34.75 0.737061 32.9591 0.737061 30.75V4.75Z" fill="white" fill-opacity="0.3"/>
<g filter="url(#filter1_d_747_13)">
<path d="M11.7371 19.6189L16.6839 23.75L24.2631 11.75" stroke="white" stroke-width="2.5" stroke-linecap="round" stroke-linejoin="round"/>
</g>
<path d="M-0.762939 4.75C-0.762939 1.71243 1.69949 -0.75 4.73706 -0.75H36.0131L34.5131 2.25H4.73706C3.35635 2.25 2.23706 3.36929 2.23706 4.75H-0.762939ZM36.0131 36.25H4.73706C1.69949 36.25 -0.762939 33.7876 -0.762939 30.75H2.23706C2.23706 32.1307 3.35635 33.25 4.73706 33.25H34.5131L36.0131 36.25ZM4.73706 36.25C1.69949 36.25 -0.762939 33.7876 -0.762939 30.75V4.75C-0.762939 1.71243 1.69949 -0.75 4.73706 -0.75V2.25C3.35635 2.25 2.23706 3.36929 2.23706 4.75V30.75C2.23706 32.1307 3.35635 33.25 4.73706 33.25V36.25ZM36.0131 -0.75V36.25L34.5131 33.25V2.25L36.0131 -0.75Z" fill="white" mask="url(#path-1-inside-1_747_13)"/>
</g>
<mask id="path-4-inside-2_747_13" fill="white">
<path d="M35.2631 0.75H148.263C150.472 0.75 152.263 2.54086 152.263 4.75V30.75C152.263 32.9591 150.472 34.75 148.263 34.75H35.2631V0.75Z"/>
</mask>
<path d="M35.2631 0.75H148.263C150.472 0.75 152.263 2.54086 152.263 4.75V30.75C152.263 32.9591 150.472 34.75 148.263 34.75H35.2631V0.75Z" fill="white"/>
<g filter="url(#filter2_d_747_13)">
<path d="M52.4811 21.75V11.81H55.5331C57.0077 11.81 58.2444 12.286 59.2431 13.238C60.2417 14.19 60.7411 15.3707 60.7411 16.78C60.7411 18.1893 60.2417 19.37 59.2431 20.322C58.2444 21.274 57.0077 21.75 55.5331 21.75H52.4811ZM54.1191 20.224H55.5331C56.5784 20.224 57.4277 19.8973 58.0811 19.244C58.7437 18.5907 59.0751 17.7693 59.0751 16.78C59.0751 15.7907 58.7437 14.9693 58.0811 14.316C57.4277 13.6627 56.5784 13.336 55.5331 13.336H54.1191V20.224ZM68.1296 20.84C67.4296 21.54 66.5616 21.89 65.5256 21.89C64.4896 21.89 63.6169 21.54 62.9076 20.84C62.2076 20.1307 61.8576 19.2673 61.8576 18.25C61.8576 17.2327 62.2076 16.374 62.9076 15.674C63.6169 14.9647 64.4896 14.61 65.5256 14.61C66.5616 14.61 67.4296 14.9647 68.1296 15.674C68.8389 16.374 69.1936 17.2327 69.1936 18.25C69.1936 19.2673 68.8389 20.1307 68.1296 20.84ZM65.5256 20.462C66.1322 20.462 66.6316 20.252 67.0236 19.832C67.4249 19.4027 67.6256 18.8753 67.6256 18.25C67.6256 17.6247 67.4249 17.102 67.0236 16.682C66.6316 16.2527 66.1322 16.038 65.5256 16.038C64.9096 16.038 64.4009 16.2527 63.9996 16.682C63.6076 17.102 63.4116 17.6247 63.4116 18.25C63.4116 18.8753 63.6076 19.4027 63.9996 19.832C64.4009 20.252 64.9096 20.462 65.5256 20.462ZM76.6517 21.75L75.1117 17.228L73.5857 21.75H72.1297L69.7777 14.75H71.4017L72.9137 19.58L74.5237 14.75H75.6997L77.2817 19.58L78.8217 14.75H80.4597L78.1077 21.75H76.6517ZM81.6116 21.75V14.75H83.1516V15.702C83.5902 14.974 84.2996 14.61 85.2796 14.61C86.0916 14.61 86.7402 14.876 87.2256 15.408C87.7109 15.94 87.9536 16.6493 87.9536 17.536V21.75H86.4136V17.788C86.4136 17.228 86.2829 16.794 86.0216 16.486C85.7602 16.1687 85.4056 16.01 84.9576 16.01C84.4256 16.01 83.9916 16.2107 83.6556 16.612C83.3196 17.0133 83.1516 17.578 83.1516 18.306V21.75H81.6116ZM89.9241 21.75V11.25H91.4641V21.75H89.9241ZM99.3014 20.84C98.6014 21.54 97.7334 21.89 96.6974 21.89C95.6614 21.89 94.7888 21.54 94.0794 20.84C93.3794 20.1307 93.0294 19.2673 93.0294 18.25C93.0294 17.2327 93.3794 16.374 94.0794 15.674C94.7888 14.9647 95.6614 14.61 96.6974 14.61C97.7334 14.61 98.6014 14.9647 99.3014 15.674C100.011 16.374 100.365 17.2327 100.365 18.25C100.365 19.2673 100.011 20.1307 99.3014 20.84ZM96.6974 20.462C97.3041 20.462 97.8034 20.252 98.1954 19.832C98.5968 19.4027 98.7974 18.8753 98.7974 18.25C98.7974 17.6247 98.5968 17.102 98.1954 16.682C97.8034 16.2527 97.3041 16.038 96.6974 16.038C96.0814 16.038 95.5728 16.2527 95.1714 16.682C94.7794 17.102 94.5834 17.6247 94.5834 18.25C94.5834 18.8753 94.7794 19.4027 95.1714 19.832C95.5728 20.252 96.0814 20.462 96.6974 20.462ZM104.784 21.89C103.832 21.89 103.03 21.5353 102.376 20.826C101.732 20.1167 101.41 19.258 101.41 18.25C101.41 17.242 101.732 16.3833 102.376 15.674C103.03 14.9647 103.832 14.61 104.784 14.61C105.26 14.61 105.699 14.7173 106.1 14.932C106.502 15.1373 106.81 15.3893 107.024 15.688V14.75H108.564V21.75H107.024V20.812C106.81 21.1107 106.502 21.3673 106.1 21.582C105.699 21.7873 105.26 21.89 104.784 21.89ZM103.566 19.846C103.958 20.2753 104.458 20.49 105.064 20.49C105.671 20.49 106.17 20.2753 106.562 19.846C106.954 19.4167 107.15 18.8847 107.15 18.25C107.15 17.6153 106.954 17.0833 106.562 16.654C106.17 16.2247 105.671 16.01 105.064 16.01C104.458 16.01 103.958 16.2247 103.566 16.654C103.174 17.0833 102.978 17.6153 102.978 18.25C102.978 18.8847 103.174 19.4167 103.566 19.846ZM113.521 21.89C112.569 21.89 111.766 21.5353 111.113 20.826C110.469 20.1167 110.147 19.258 110.147 18.25C110.147 17.242 110.469 16.3833 111.113 15.674C111.766 14.9647 112.569 14.61 113.521 14.61C113.997 14.61 114.435 14.7173 114.837 14.932C115.238 15.1373 115.546 15.3893 115.761 15.688V11.25H117.301V21.75H115.761V20.812C115.546 21.1107 115.238 21.3673 114.837 21.582C114.435 21.7873 113.997 21.89 113.521 21.89ZM112.303 19.846C112.695 20.2753 113.194 20.49 113.801 20.49C114.407 20.49 114.907 20.2753 115.299 19.846C115.691 19.4167 115.887 18.8847 115.887 18.25C115.887 17.6153 115.691 17.0833 115.299 16.654C114.907 16.2247 114.407 16.01 113.801 16.01C113.194 16.01 112.695 16.2247 112.303 16.654C111.911 17.0833 111.715 17.6153 111.715 18.25C111.715 18.8847 111.911 19.4167 112.303 19.846Z" fill="#1F1F1F"/>
</g>
<g filter="url(#filter3_d_747_13)">
<path d="M127.263 18.7997L131.763 22.9231M131.763 22.9231L136.263 18.7997M131.763 22.9231V10.5769" stroke="#1F1F1F" stroke-width="1.5" stroke-linecap="round" stroke-linejoin="round"/>
</g>
<path d="M34.5131 -0.75H148.263C151.301 -0.75 153.763 1.71243 153.763 4.75H150.763C150.763 3.36929 149.644 2.25 148.263 2.25H36.0131L34.5131 -0.75ZM153.763 30.75C153.763 33.7876 151.301 36.25 148.263 36.25H34.5131L36.0131 33.25H148.263C149.644 33.25 150.763 32.1307 150.763 30.75H153.763ZM34.5131 36.25V-0.75L36.0131 2.25V33.25L34.5131 36.25ZM148.263 -0.75C151.301 -0.75 153.763 1.71243 153.763 4.75V30.75C153.763 33.7876 151.301 36.25 148.263 36.25V33.25C149.644 33.25 150.763 32.1307 150.763 30.75V4.75C150.763 3.36929 149.644 2.25 148.263 2.25V-0.75Z" fill="white" mask="url(#path-4-inside-2_747_13)"/>
<defs>
<filter id="filter0_b_747_13" x="-3.26294" y="-3.25" width="42.526" height="42" filterUnits="userSpaceOnUse" color-interpolation-filters="sRGB">
<feFlood flood-opacity="0" result="BackgroundImageFix"/>
<feGaussianBlur in="BackgroundImageFix" stdDeviation="2"/>
<feComposite in2="SourceAlpha" operator="in" result="effect1_backgroundBlur_747_13"/>
<feBlend mode="normal" in="SourceGraphic" in2="effect1_backgroundBlur_747_13" result="shape"/>
</filter>
<filter id="filter1_d_747_13" x="2.48706" y="2.49988" width="31.0261" height="30.5001" filterUnits="userSpaceOnUse" color-interpolation-filters="sRGB">
<feFlood flood-opacity="0" result="BackgroundImageFix"/>
<feColorMatrix in="SourceAlpha" type="matrix" values="0 0 0 0 0 0 0 0 0 0 0 0 0 0 0 0 0 0 127 0" result="hardAlpha"/>
<feOffset/>
<feGaussianBlur stdDeviation="4"/>
<feComposite in2="hardAlpha" operator="out"/>
<feColorMatrix type="matrix" values="0 0 0 0 0 0 0 0 0 0 0 0 0 0 0 0 0 0 1 0"/>
<feBlend mode="normal" in2="BackgroundImageFix" result="effect1_dropShadow_747_13"/>
<feBlend mode="normal" in="SourceGraphic" in2="effect1_dropShadow_747_13" result="shape"/>
</filter>
<filter id="filter2_d_747_13" x="46.4811" y="6.25" width="76.8196" height="22.64" filterUnits="userSpaceOnUse" color-interpolation-filters="sRGB">
<feFlood flood-opacity="0" result="BackgroundImageFix"/>
<feColorMatrix in="SourceAlpha" type="matrix" values="0 0 0 0 0 0 0 0 0 0 0 0 0 0 0 0 0 0 127 0" result="hardAlpha"/>
<feOffset dy="1"/>
<feGaussianBlur stdDeviation="3"/>
<feComposite in2="hardAlpha" operator="out"/>
<feColorMatrix type="matrix" values="0 0 0 0 0.154167 0 0 0 0 0.154167 0 0 0 0 0.154167 0 0 0 0.29 0"/>
<feBlend mode="normal" in2="BackgroundImageFix" result="effect1_dropShadow_747_13"/>
<feBlend mode="normal" in="SourceGraphic" in2="effect1_dropShadow_747_13" result="shape"/>
</filter>
<filter id="filter3_d_747_13" x="120.513" y="4.8269" width="22.5" height="25.8462" filterUnits="userSpaceOnUse" color-interpolation-filters="sRGB">
<feFlood flood-opacity="0" result="BackgroundImageFix"/>
<feColorMatrix in="SourceAlpha" type="matrix" values="0 0 0 0 0 0 0 0 0 0 0 0 0 0 0 0 0 0 127 0" result="hardAlpha"/>
<feOffset dy="1"/>
<feGaussianBlur stdDeviation="3"/>
<feComposite in2="hardAlpha" operator="out"/>
<feColorMatrix type="matrix" values="0 0 0 0 0.154167 0 0 0 0 0.154167 0 0 0 0 0.154167 0 0 0 0.29 0"/>
<feBlend mode="normal" in2="BackgroundImageFix" result="effect1_dropShadow_747_13"/>
<feBlend mode="normal" in="SourceGraphic" in2="effect1_dropShadow_747_13" result="shape"/>
</filter>
</defs>
</svg>
