<svg width="38" height="55" viewBox="0 0 38 55" fill="none" xmlns="http://www.w3.org/2000/svg">
<path d="M21.238 53.493C22.4437 52.8927 36.4464 38.636 36.8906 37.5855C38.0751 34.6698 36.2137 31.454 33.2101 31.2396C31.1161 31.0895 30.693 31.3468 27.0126 35.0128L23.6705 38.3358L23.6705 25.0009C23.6705 12.3092 23.6494 4.43626 23.2686 3.68591C21.4919 0.191396 16.7961 0.234273 15.1885 3.75022C14.829 4.56489 14.7866 12.6094 14.7866 25.0652L14.7866 38.3358L11.4446 35.0128C7.76415 31.3468 7.34111 31.0895 5.2682 31.2396C3.04723 31.4111 1.46083 33.019 1.29161 35.2701C1.12239 37.564 1.05894 37.4783 9.05443 45.625C13.8136 50.4701 16.6692 53.2143 17.2191 53.493C18.3613 54.0504 20.117 54.0504 21.238 53.493Z" fill="white" fill-opacity="0.52" stroke="white" stroke-width="1.5" stroke-linejoin="round"/>
</svg>
