<svg width="49" height="46" viewBox="0 0 49 46" fill="none" xmlns="http://www.w3.org/2000/svg">
<path d="M21.738 43.9333C22.9437 43.333 46.9464 9.07629 47.3906 8.02579C48.5751 5.11013 46.7137 1.89432 43.7101 1.67994C42.8684 1.61961 41.4619 1.96285 40.6948 3.04887C35.3353 10.6358 24.0732 26.8997 20.3298 32.1616C19.9732 32.6629 19.2557 32.7166 18.8192 32.283C15.5593 29.0449 12.2136 25.8392 9.16089 22.8061C8.02746 21.6799 7.14768 21.5801 5.76821 21.6799C3.54724 21.8514 1.96083 23.4593 1.79161 25.7104C1.6224 28.0043 1.55894 27.9186 9.55443 36.0653C14.3136 40.9105 17.1692 43.6546 17.7191 43.9333C18.8613 44.4907 20.617 44.4907 21.738 43.9333Z" fill="white" fill-opacity="0.52" stroke="white" stroke-width="1.5" stroke-linejoin="round"/>
</svg>
