<svg width="81" height="45" viewBox="0 0 81 45" fill="none" xmlns="http://www.w3.org/2000/svg">
<path d="M72.1349 16.2385L72.4026 16.8206H73.0434H77.3574H78.7725L78.3 15.4867C75.4139 7.33869 67.6401 1.5 58.5 1.5C50.1863 1.5 43.0029 6.3312 39.6005 13.3348C38.2545 16.1055 37.5 19.2161 37.5 22.5C37.5 30.7843 30.7843 37.5 22.5 37.5C15.2435 37.5 9.18922 32.3464 7.79987 25.5H22.5H23.5V24.5V20.5V19.5H22.5H7.79987C9.18922 12.6536 15.2435 7.5 22.5 7.5C26.6778 7.5 30.4551 9.20664 33.176 11.9633L34.3294 13.1318L34.8384 11.5709C35.3207 10.0924 35.6539 9.34234 36.535 8.04104L37.0288 7.31162L36.3675 6.72969C32.6691 3.47506 27.814 1.5 22.5 1.5C10.902 1.5 1.5 10.902 1.5 22.5C1.5 34.098 10.902 43.5 22.5 43.5C30.8137 43.5 37.9971 38.6688 41.3995 31.6652C42.7455 28.8945 43.5 25.7839 43.5 22.5C43.5 14.2157 50.2157 7.5 58.5 7.5C64.5475 7.5 69.7613 11.0789 72.1349 16.2385ZM78.3 29.5133L78.7725 28.1794H77.3574L73.0434 28.1794H72.4026L72.1349 28.7615C69.7613 33.9211 64.5475 37.5 58.5 37.5C54.0306 37.5 50.0188 35.5466 47.2693 32.4436L46.0722 31.0928L45.5617 32.824C45.1023 34.3816 44.7191 35.0565 43.7734 36.1709L43.1697 36.8823L43.8376 37.5338C47.6212 41.2244 52.7959 43.5 58.5 43.5C67.6401 43.5 75.4139 37.6613 78.3 29.5133Z" fill="white" stroke="white" stroke-width="2"/>
</svg>
